<svg width="18" height="17" viewBox="0 0 18 17" fill="none" xmlns="http://www.w3.org/2000/svg">
<path fill-rule="evenodd" clip-rule="evenodd" d="M7.74548 1.23187C8.311 0.256044 9.68904 0.256044 10.2545 1.23187L17.7931 14.24C18.371 15.2372 17.67 16.5 16.5385 16.5H1.46146C0.330044 16.5 -0.370955 15.2372 0.206933 14.24L7.74548 1.23187ZM8.37318 14.1282C8.28179 14.1282 8.20411 14.096 8.14013 14.0316C8.07616 13.9672 8.04417 13.889 8.04417 13.797V12.5137C8.04417 12.4125 8.07616 12.3297 8.14013 12.2653C8.20411 12.2009 8.28179 12.1687 8.37318 12.1687H9.64811C9.74864 12.1687 9.83089 12.2009 9.89487 12.2653C9.95884 12.3297 9.99083 12.4125 9.99083 12.5137V13.797C9.99083 13.889 9.95884 13.9672 9.89487 14.0316C9.83089 14.096 9.74864 14.1282 9.64811 14.1282H8.37318ZM8.46179 10.652C8.3704 10.652 8.29272 10.6334 8.22874 10.5963C8.16477 10.5531 8.13278 10.4974 8.13278 10.4294L7.92043 6.18163C7.92043 6.1198 7.95242 6.06725 8.01639 6.02396C8.08037 5.98068 8.15805 5.95904 8.24944 5.95904H9.75058C9.85111 5.95904 9.92879 5.98068 9.98363 6.02396C10.0476 6.06725 10.0796 6.1198 10.0796 6.18163L9.90123 10.4294C9.90123 10.4974 9.86924 10.5531 9.80526 10.5963C9.75043 10.6334 9.67274 10.652 9.57221 10.652H8.46179Z" fill="#FF5757"/>
</svg>
