<svg width="16" height="14" viewBox="0 0 16 14" fill="none" xmlns="http://www.w3.org/2000/svg">
<path d="M14.794 5.1662L13.6719 1.42578C13.416 0.572753 12.646 0 11.7559 0H4.24414C3.354 0 2.58398 0.572754 2.32812 1.42578L1.20599 5.1662C0.497433 5.47412 0 6.17926 0 7V11C0 11.5522 0.447754 12 1 12V12.9999C1 13.5522 1.44769 14 2 14H3.00006C3.55231 14 4.00006 13.5522 4.00006 13L3.99963 12H12L11.9999 12.9999C11.9999 13.5522 12.4476 14 12.9999 14H14C14.5523 14 15 13.5522 15 13V12.0001C15.5522 12.0001 16 11.5522 16 11V7C16 6.17926 15.5026 5.47412 14.794 5.1662ZM4.24411 2H11.7558L12.6559 5H3.34408L4.24411 2ZM3.99997 9.5C3.44766 9.5 2.99997 9.05225 2.99997 8.5C2.99997 7.94769 3.44766 7.5 3.99997 7.5C4.55228 7.5 4.99997 7.94769 4.99997 8.5C4.99997 9.05225 4.55228 9.5 3.99997 9.5ZM12 9.5C11.4477 9.5 11 9.05225 11 8.5C11 7.94769 11.4477 7.5 12 7.5C12.5523 7.5 13 7.94769 13 8.5C13 9.05225 12.5523 9.5 12 9.5Z" fill="#0F7EE6"/>
</svg>
