<svg width="17" height="12" viewBox="0 0 17 12" fill="none" xmlns="http://www.w3.org/2000/svg">
<path d="M3.30078 5H2.30078V2H1.30078V1.35117C1.30078 1.35117 1.78285 1.25802 2.00098 1C2.14796 0.826131 2.30078 0 2.30078 0H3.30078V2V5Z" fill="#777777"/>
<path d="M4 11.1135V12H1C1.03249 11.6649 1.12995 11.3478 1.29239 11.0489C1.45482 10.7477 1.77563 10.3492 2.25482 9.85326C2.64061 9.45245 2.87716 9.18071 2.96447 9.03804C3.08223 8.84103 3.14112 8.64629 3.14112 8.4538C3.14112 8.24094 3.08934 8.0779 2.98579 7.96467C2.88426 7.84918 2.74315 7.79144 2.56244 7.79144C2.38376 7.79144 2.24162 7.85145 2.13604 7.97147C2.03046 8.09149 1.96954 8.29076 1.9533 8.56929L1.10051 8.47418C1.15127 7.94882 1.31066 7.57178 1.57868 7.34307C1.8467 7.11436 2.18173 7 2.58376 7C3.02437 7 3.37056 7.13247 3.62234 7.39742C3.87411 7.66236 4 7.99185 4 8.38587C4 8.61005 3.96345 8.82405 3.89036 9.02785C3.81929 9.22939 3.70558 9.44112 3.54924 9.66304C3.44569 9.81024 3.25888 10.022 2.98883 10.2982C2.71878 10.5745 2.54721 10.7579 2.47411 10.8485C2.40305 10.9391 2.34518 11.0274 2.30051 11.1135H4Z" fill="#777777"/>
<rect x="6" width="11" height="2" rx="1" fill="#777777"/>
<rect x="6" y="5" width="11" height="2" rx="1" fill="#777777"/>
<rect x="6" y="10" width="11" height="2" rx="1" fill="#777777"/>
</svg>
