<svg width="16" height="16" viewBox="0 0 16 16" fill="none" xmlns="http://www.w3.org/2000/svg">
<path fill-rule="evenodd" clip-rule="evenodd" d="M5 0C4.44772 0 4 0.447715 4 1V1.10002C1.71776 1.56329 0 3.58104 0 6V11C0 13.7614 2.23858 16 5 16H11C13.7614 16 16 13.7614 16 11V6C16 3.58104 14.2822 1.56329 12 1.10002V1C12 0.447715 11.5523 0 11 0H10C9.44772 0 9 0.447715 9 1H7C7 0.447715 6.55228 0 6 0H5ZM10 4C9.44771 4 9 3.55228 9 3H7C7 3.55228 6.55228 4 6 4H5C4.50423 4 4.09273 3.63923 4.0137 3.1659C2.84136 3.57385 2 4.68867 2 6V11C2 12.6569 3.34315 14 5 14H11C12.6569 14 14 12.6569 14 11V6C14 4.68867 13.1586 3.57384 11.9863 3.1659C11.9073 3.63923 11.4958 4 11 4H10ZM7.72178 11.6237V10.5238H5.29358L6.08888 9.60579C6.32013 9.37736 6.52601 9.16161 6.7065 8.95856C6.88982 8.7555 7.04493 8.55809 7.17184 8.36631C7.29875 8.17172 7.39604 7.97572 7.46373 7.7783C7.53141 7.58089 7.56525 7.37501 7.56525 7.16068C7.56525 6.78559 7.48629 6.4655 7.32836 6.2004C7.17325 5.93248 6.94199 5.72801 6.63459 5.587C6.32718 5.44599 5.94646 5.37549 5.4924 5.37549C5.05809 5.37549 4.67596 5.46996 4.34599 5.65892C4.01603 5.84505 3.75798 6.09464 3.57185 6.40768C3.38853 6.72073 3.29688 7.0662 3.29688 7.44411H4.72672C4.72672 7.2608 4.75633 7.09581 4.81556 6.94916C4.8776 6.80251 4.96362 6.68688 5.0736 6.60228C5.18359 6.51767 5.31191 6.47537 5.45856 6.47537C5.60521 6.47537 5.72789 6.50639 5.8266 6.56843C5.92813 6.63048 6.00427 6.72214 6.05504 6.8434C6.10862 6.96185 6.13541 7.10991 6.13541 7.28759C6.13541 7.39193 6.11003 7.50897 6.05927 7.6387C6.01132 7.76843 5.93377 7.91367 5.8266 8.07442C5.71943 8.23236 5.57842 8.41144 5.40357 8.61167L3.42378 10.693V11.6237H7.72178ZM9.43505 10.5661H9.35044V11.7083H9.46043C9.82424 11.7083 10.1683 11.6631 10.4926 11.5729C10.8198 11.4826 11.1173 11.3487 11.3852 11.171C11.656 10.9905 11.89 10.7677 12.0875 10.5026C12.2849 10.2347 12.4372 9.92448 12.5443 9.57195C12.6515 9.21943 12.7051 8.8246 12.7051 8.38747V7.89675C12.7051 7.49346 12.6487 7.1353 12.5359 6.82225C12.4231 6.50921 12.2679 6.24552 12.0705 6.03119C11.8731 5.81685 11.6447 5.65469 11.3852 5.5447C11.1258 5.43189 10.848 5.37549 10.5519 5.37549C10.2388 5.37549 9.95115 5.4333 9.68887 5.54893C9.42659 5.66456 9.19956 5.8239 9.00779 6.02696C8.81602 6.22719 8.66795 6.45986 8.56361 6.72496C8.45926 6.99006 8.40709 7.27349 8.40709 7.57525C8.40709 7.88829 8.44798 8.17313 8.52976 8.42977C8.61437 8.68359 8.73564 8.90215 8.89357 9.08547C9.0515 9.26878 9.24187 9.40979 9.46466 9.5085C9.69028 9.60721 9.94269 9.65656 10.2219 9.65656C10.4306 9.65656 10.628 9.61426 10.8141 9.52965C10.9777 9.45641 11.1244 9.36203 11.2541 9.24652C11.2331 9.40452 11.1964 9.54683 11.1441 9.67348C11.0595 9.88218 10.9368 10.0528 10.7761 10.1853C10.6153 10.3151 10.4221 10.411 10.1965 10.473C9.97089 10.5351 9.71707 10.5661 9.43505 10.5661ZM11.2752 8.22724V7.63447C11.2752 7.43706 11.2583 7.26644 11.2245 7.1226C11.1906 6.97595 11.1413 6.85469 11.0764 6.7588C11.0115 6.66291 10.934 6.59241 10.8437 6.54728C10.7535 6.49934 10.652 6.47537 10.5392 6.47537C10.4264 6.47537 10.3262 6.5078 10.2388 6.57267C10.1542 6.63471 10.0809 6.71932 10.0188 6.82648C9.95961 6.93083 9.91448 7.04928 9.88346 7.18183C9.85244 7.31156 9.83693 7.4427 9.83693 7.57525C9.83693 7.72472 9.85244 7.86432 9.88346 7.99405C9.9173 8.12096 9.96525 8.23236 10.0273 8.32824C10.0922 8.42131 10.1725 8.49463 10.2684 8.54822C10.3671 8.6018 10.4813 8.62859 10.6111 8.62859C10.7408 8.62859 10.8522 8.60603 10.9453 8.56091C11.0412 8.51297 11.1201 8.45092 11.1822 8.37478C11.2192 8.32761 11.2502 8.27843 11.2752 8.22724Z" fill="#0F7EE6"/>
</svg>
