<svg width="11" height="13" viewBox="0 0 11 13" fill="none" xmlns="http://www.w3.org/2000/svg">
<path fill-rule="evenodd" clip-rule="evenodd" d="M2.91825 6.97445C2.25154 7.66448 2.25153 8.7848 2.91812 9.47495C3.58789 10.1682 4.67949 10.1682 5.34906 9.47489L9.34665 5.33646C9.88099 4.78329 10.1471 4.05746 10.1472 3.33379C10.1472 2.60987 9.88103 1.88437 9.34666 1.33116C8.27629 0.223018 6.53259 0.222943 5.46215 1.33096L1.10108 5.8458C-0.367023 7.36569 -0.367029 9.83612 1.10108 11.356C1.81278 12.0928 2.76114 12.5001 3.77021 12.5C4.77925 12.5 5.7276 12.0928 6.43931 11.3559L10.8004 6.84133C10.934 6.70299 11 6.5224 11 6.34352C11 6.16467 10.934 5.9841 10.8004 5.84573C10.5312 5.56701 10.0924 5.567 9.82316 5.84568L5.46204 10.3604C5.0089 10.8295 4.40851 11.0864 3.77016 11.0864C3.13185 11.0865 2.53145 10.8295 2.07835 10.3604C1.14189 9.39096 1.14192 7.81087 2.07831 6.84139L6.43933 2.3266C6.97202 1.77526 7.83678 1.7753 8.36948 2.32673C8.90516 2.88129 8.9051 3.78626 8.36943 4.3409L4.37177 8.47929C4.23987 8.61587 4.02726 8.6159 3.89531 8.47934C3.76046 8.33967 3.76047 8.10975 3.89539 7.97009L6.5096 5.26368C6.77574 4.9881 6.77575 4.54366 6.50961 4.26808C6.2404 3.98948 5.80154 3.98942 5.53236 4.26812L2.91825 6.97445Z" fill="#0F7EE6"/>
</svg>
