<svg width="12" height="18" viewBox="0 0 12 18" fill="none" xmlns="http://www.w3.org/2000/svg">
<path d="M6.77164 3.78267C7.22879 3.78267 7.62881 3.63605 7.97167 3.34282C8.31454 3.04959 8.53169 2.68599 8.62312 2.25201C9.1585 2.18333 9.58474 1.72878 9.65172 1.17879C9.33156 0.777194 8.78661 0.647825 8.31454 0.809315C7.95986 0.29972 7.35887 0 6.75449 0C6.25162 0 5.81732 0.181803 5.4516 0.545408C5.0973 0.909014 4.91444 1.34886 4.90301 1.86494C4.90301 2.39276 5.08587 2.84433 5.4516 3.21967C5.81732 3.595 6.25733 3.78267 6.77164 3.78267ZM11.7261 7.54774L8.89742 5.19017C9.31486 6.04699 9.05171 7.29955 9.05171 8.21631L10.886 8.95525C11.7254 9.1706 12.3975 8.1507 11.7261 7.54774ZM4.83443 10.9609L3.07087 16.8216C2.79161 17.7496 4.05884 18.5172 4.52585 17.5586L6.8745 12.8963C6.17513 12.251 5.49588 11.6398 4.83443 10.9609ZM10.5946 12.8787L8.2974 9.34231V5.9819C8.2974 5.15287 7.60721 4.45123 6.80592 4.45123C5.98623 4.45123 5.29731 5.12954 5.29731 5.9819V9.90532C5.29731 10.2103 5.41731 10.4742 5.62303 10.6618L8.88027 14.0223L9.75458 17.4179C10.0431 18.247 11.3489 18.1075 11.3489 17.154C11.3489 16.2587 11.1976 13.6006 10.5946 12.8787ZM4.543 4.50402C4.543 3.56011 3.62298 3.36756 2.88009 3.48357C2.36579 3.55395 1.48576 4.21665 0.240007 5.47167C0.113059 5.60196 0.0171434 5.76992 0.0171434 5.99949C0.0171434 6.34954 0.186138 6.45995 0.411441 6.66805C0.285723 6.98474 0.182863 7.33075 0.10286 7.70609C0.0342868 8.06969 0 8.44503 0 8.83209C0 11.2045 4.52585 11.385 4.52585 9.02562C4.52585 7.51845 4.53724 6.01118 4.543 4.50402Z" fill="#0F7EE6"/>
</svg>
