<svg width="19" height="16" viewBox="0 0 19 16" fill="none" xmlns="http://www.w3.org/2000/svg">
<path d="M7.50097 8C7.50097 8.55228 7.05325 9 6.50097 9C5.94868 9 5.50097 8.55228 5.50097 8C5.50097 7.44772 5.94868 7 6.50097 7C7.05325 7 7.50097 7.44772 7.50097 8Z" fill="white"/>
<path d="M10.001 9C10.5533 9 11.001 8.55228 11.001 8C11.001 7.44772 10.5533 7 10.001 7C9.44868 7 9.00097 7.44772 9.00097 8C9.00097 8.55228 9.44868 9 10.001 9Z" fill="white"/>
<path d="M14.501 8C14.501 8.55228 14.0533 9 13.501 9C12.9487 9 12.501 8.55228 12.501 8C12.501 7.44772 12.9487 7 13.501 7C14.0533 7 14.501 7.44772 14.501 8Z" fill="white"/>
<path fill-rule="evenodd" clip-rule="evenodd" d="M0.571038 14.6301L2.03718 10.9454C1.65255 10.0336 1.44069 9.04009 1.44069 8C1.44069 3.514 5.33069 0 9.97169 0C14.6127 0 18.5007 3.514 18.5007 8C18.5007 12.486 14.6117 16 9.97069 16C8.61544 16.0039 7.27957 15.6994 6.06213 15.1115L1.69569 15.98C1.51931 16.0152 1.33652 16.0021 1.16694 15.9422C0.997288 15.8823 0.84695 15.7777 0.731769 15.6395C0.616587 15.5013 0.540829 15.3346 0.512481 15.1569C0.484132 14.9792 0.504587 14.7973 0.571038 14.6301ZM6.68069 13.183C7.64369 13.7 8.76569 14 9.97069 14C13.6477 14 16.5007 11.246 16.5007 8C16.5007 4.754 13.6477 2 9.97169 2C6.29569 2 3.44169 4.754 3.44169 8C3.44196 9.03477 3.76891 9.9594 4.21769 10.873L4.05469 11.287L4.05262 11.2862L3.10825 13.6605L6.36369 13.013L6.68069 13.183Z" fill="white"/>
</svg>
