<svg width="9" height="12" viewBox="0 0 9 12" fill="none" xmlns="http://www.w3.org/2000/svg">
<path d="M0 0H4.29479C5.14495 0 5.77769 0.0409277 6.193 0.122783C6.61319 0.199181 6.98697 0.362892 7.31433 0.613915C7.64658 0.864939 7.92264 1.20055 8.14251 1.62074C8.36238 2.03547 8.47231 2.50205 8.47231 3.02046C8.47231 3.58254 8.33551 4.09823 8.06189 4.56753C7.79316 5.03683 7.42671 5.38881 6.96254 5.62347C7.61726 5.83629 8.12052 6.19918 8.47231 6.71214C8.8241 7.2251 9 7.8281 9 8.52115C9 9.06685 8.88518 9.59891 8.65554 10.1173C8.43078 10.6303 8.12052 11.0423 7.72476 11.3533C7.33388 11.6589 6.85016 11.8472 6.27362 11.9181C5.91205 11.9618 5.0399 11.9891 3.65717 12H0V0ZM2.16938 1.99727V4.77217H3.59121C4.43648 4.77217 4.96173 4.75853 5.16694 4.73124C5.53827 4.68213 5.82899 4.54025 6.03909 4.30559C6.25407 4.06548 6.36156 3.75171 6.36156 3.36426C6.36156 2.99318 6.26873 2.69304 6.08306 2.46385C5.90228 2.22919 5.63111 2.08731 5.26954 2.0382C5.05456 2.01091 4.43648 1.99727 3.41531 1.99727H2.16938ZM2.16938 6.76944V9.97817H4.17752C4.95928 9.97817 5.45521 9.95362 5.66531 9.9045C5.98779 9.83902 6.24919 9.68076 6.44951 9.42974C6.65472 9.17326 6.75733 8.8322 6.75733 8.40655C6.75733 8.04638 6.67915 7.74079 6.5228 7.48977C6.36645 7.23874 6.13925 7.05593 5.84121 6.94134C5.54805 6.82674 4.90798 6.76944 3.92101 6.76944H2.16938Z" fill="#777777"/>
</svg>
