<svg width="11" height="12" viewBox="0 0 11 12" fill="none" xmlns="http://www.w3.org/2000/svg">
<path fill-rule="evenodd" clip-rule="evenodd" d="M2.91825 6.47445C2.25154 7.16448 2.25153 8.2848 2.91812 8.97495C3.58789 9.66823 4.67949 9.66819 5.34906 8.97489L9.34665 4.83646C9.88099 4.28329 10.1471 3.55746 10.1472 2.83379C10.1472 2.10987 9.88103 1.38437 9.34666 0.831157C8.27629 -0.276982 6.53259 -0.277057 5.46215 0.830964L1.10108 5.3458C-0.367023 6.86569 -0.367029 9.33612 1.10108 10.856C1.81278 11.5928 2.76114 12.0001 3.77021 12C4.77925 12 5.7276 11.5928 6.43931 10.8559L10.8004 6.34133C10.934 6.20299 11 6.0224 11 5.84352C11 5.66467 10.934 5.4841 10.8004 5.34573C10.5312 5.06701 10.0924 5.067 9.82316 5.34568L5.46204 9.86035C5.0089 10.3295 4.40851 10.5864 3.77016 10.5864C3.13185 10.5865 2.53145 10.3295 2.07835 9.86043C1.14189 8.89096 1.14192 7.31087 2.07831 6.34139L6.43933 1.8266C6.97202 1.27526 7.83678 1.2753 8.36948 1.82673C8.90516 2.38129 8.9051 3.28626 8.36943 3.8409L4.37177 7.97929C4.23987 8.11587 4.02726 8.1159 3.89531 7.97934C3.76046 7.83967 3.76047 7.60975 3.89539 7.47009L6.5096 4.76368C6.77574 4.4881 6.77575 4.04366 6.50961 3.76808C6.2404 3.48948 5.80154 3.48942 5.53236 3.76812L2.91825 6.47445Z" fill="#777777"/>
</svg>
