<svg width="24" height="14" viewBox="0 0 24 14" fill="none" xmlns="http://www.w3.org/2000/svg">
<path d="M20.3538 11.5664C20.2583 10.8646 20.3668 10.181 20.6793 9.51563C21.0005 8.84115 21.3825 8.16667 21.8253 7.49219C22.2767 6.81771 22.7195 6.12956 23.1536 5.42773C23.5876 4.72591 23.8698 3.99674 24 3.24023C23.6961 3.20378 23.3663 3.17643 23.0103 3.1582C22.663 3.13086 22.3028 3.11719 21.9295 3.11719C20.6272 3.11719 19.3294 3.24935 18.0358 3.51367C16.7423 3.77799 15.4531 4.12435 14.1682 4.55273C12.892 4.97201 11.6158 5.44141 10.3397 5.96094C9.06348 6.48047 7.7873 7 6.51112 7.51953C8.20401 6.77214 9.14162 6.38021 9.32393 6.34375C9.49756 6.30729 9.18068 6.4668 8.3733 6.82227C7.56593 7.17773 6.39826 7.65625 4.87032 8.25781C3.34238 8.85938 1.71894 9.42904 0 9.9668L0.182311 12.5645V14H21.7732C21.7732 12.9154 21.5648 12.4141 21.1481 12.4961C20.7401 12.569 20.4753 12.2546 20.3538 11.5527V11.5664ZM18.4395 8.17578C18.1617 8.17578 17.9273 8.07552 17.7363 7.875C17.5453 7.66536 17.4498 7.41927 17.4498 7.13672C17.4498 6.84505 17.5453 6.59896 17.7363 6.39844C17.9273 6.19792 18.1617 6.09766 18.4395 6.09766C18.7086 6.09766 18.9387 6.19792 19.1297 6.39844C19.3294 6.59896 19.4292 6.84505 19.4292 7.13672C19.4292 7.41927 19.3294 7.66536 19.1297 7.875C18.9387 8.07552 18.7086 8.17578 18.4395 8.17578ZM13.5822 2.10547L13.8947 2.57031H14.7672L14.4417 2.10547H13.5301H13.5822ZM13.9859 3.69141L12.7618 1.66797H17.2154L17.7623 2.33789L18.1009 2.21484L17.541 1.05273H15.4965L14.9756 0H9.8318L3.63321 3.60938V5.41406L1.758 6.35742V8.47656C2.15735 8.33984 2.5567 8.19857 2.95605 8.05273C3.3554 7.9069 3.75041 7.75651 4.14107 7.60156C4.54042 7.44661 4.93543 7.29167 5.3261 7.13672C5.71677 6.97266 6.10309 6.80859 6.48508 6.64453C7.11015 6.38021 7.73087 6.11589 8.34726 5.85156C8.97233 5.58724 9.59739 5.33203 10.2225 5.08594C10.8475 4.83073 11.4726 4.58464 12.0977 4.34766C12.7314 4.11979 13.3608 3.90104 13.9859 3.69141ZM14.65 0.628906L15.0277 1.03906H13.465L13.2957 0.806641H12.3711L12.5274 1.03906H12.3842L12.1498 1.16211L11.9023 0.820313H10.9908L11.3033 1.28516H11.9154L10.8996 1.80469L10.2094 0.628906H14.663H14.65ZM4.06294 4.00586L9.85784 0.998047L10.0662 1.32617L4.06294 4.26562V4.00586ZM2.40912 6.71289L11.9935 2.41992L12.3581 3.00781L2.344 7.16406L2.40912 6.71289ZM16.1476 2.51563L15.822 2.03711H14.9235L15.2491 2.51563H16.1606H16.1476ZM15.197 3.36328L14.9365 2.89844H13.9859L14.2594 3.36328H15.21H15.197Z" fill="#0F7EE6"/>
</svg>
