<svg width="18" height="18" viewBox="0 0 18 18" fill="none" xmlns="http://www.w3.org/2000/svg">
<path d="M4.89639 18H6.2935C6.53863 18 6.75315 17.8761 6.87938 17.6846L10.9355 10.8588C11.0382 10.651 11.2558 10.504 11.4876 10.5096H16.1296C17.3491 10.5143 17.9886 10.0027 17.9999 8.93266C18.0112 7.86264 16.9389 7.49018 16.1409 7.4909H11.5214C11.2889 7.4909 11.0667 7.37902 10.9468 7.17552L6.85685 0.315878C6.73584 0.124017 6.52018 -0.00915857 6.2935 0.000492389H4.94146L4.73866 0.349669L6.93572 7.1192L6.71038 7.47964H3.05987C2.81293 7.47964 2.62689 7.37677 2.47399 7.18678L1.8205 6.31947C1.6817 6.15405 1.44263 6.02129 1.22335 6.02661H0.276925C0.126842 6.01618 -0.00872831 6.16984 0.00651751 6.31947L0.660003 9.32689L0.00651751 11.6247C-0.0142893 11.8119 0.00507896 11.9647 0.209323 11.9851H1.22335C1.46843 11.9851 1.66174 11.8737 1.8205 11.6923L2.47399 10.8024C2.60338 10.6112 2.82905 10.4913 3.05987 10.4983H6.74418L6.95825 10.87L4.70485 17.6396L4.89639 18Z" fill="#0F7EE6"/>
</svg>
