<svg width="18" height="18" viewBox="0 0 18 18" fill="none" xmlns="http://www.w3.org/2000/svg">
<path d="M9.22613 2.75223C9.0603 2.75223 8.78141 2.90625 8.38945 3.21429C7.99749 3.52232 7.46231 3.98438 6.78392 4.60045L1.8995 9.08036V18H4.61307V12.7969H13.2965V18H16.1231V9.08036L11.691 4.74107C10.9824 4.08482 10.4397 3.58929 10.0628 3.25446C9.701 2.91964 9.42211 2.75223 9.22613 2.75223ZM11.691 1.60714C11.0276 0.9375 10.5452 0.502232 10.2437 0.301339C9.95729 0.100446 9.61809 0 9.22613 0C8.84925 0 8.51759 0.0870536 8.23116 0.261161C7.94472 0.421875 7.46231 0.810268 6.78392 1.42634L5.83417 2.29018V0.200893H3.25628V4.66071L0 7.75446L0.768844 8.35714C0.768844 8.35714 0.9799 8.15625 1.40201 7.75446C1.82412 7.36607 2.33668 6.88393 2.9397 6.30804C3.55779 5.73214 4.21357 5.12277 4.90704 4.47991C5.6005 3.83705 6.21106 3.27455 6.73869 2.79241C7.43216 2.16295 7.97487 1.71429 8.36683 1.44643C8.77387 1.16518 9.0603 1.02455 9.22613 1.02455C9.40703 1.02455 9.69347 1.17857 10.0854 1.48661C10.4925 1.78125 11.0276 2.25 11.691 2.89286C12.1884 3.38839 12.7688 3.95089 13.4322 4.58036C14.0955 5.22321 14.7211 5.83259 15.309 6.40848C15.9121 6.98438 16.4171 7.46652 16.8241 7.85491C17.2312 8.2567 17.4347 8.45759 17.4347 8.45759L18 7.75446L11.691 1.60714Z" fill="#0F7EE6"/>
</svg>
