<svg width="16" height="16" viewBox="0 0 16 16" fill="none" xmlns="http://www.w3.org/2000/svg">
<path d="M11.9943 1.59998H3.99809C2.67324 1.59998 1.59924 2.67449 1.59924 3.99996V11.9999C1.59924 13.3254 2.67324 14.3999 3.99809 14.3999H6.39694V15.9998H3.99809C1.79001 15.9998 0 14.209 0 11.9999V3.99996C0 1.79084 1.79001 0 3.99809 0H11.9943C14.2024 0 15.9924 1.79084 15.9924 3.99996V6.39994H14.3931V3.99996C14.3931 2.67449 13.3191 1.59998 11.9943 1.59998Z" fill="#0F7EE6"/>
<path d="M5.99713 7.46046C6.98074 7.46046 7.7781 6.6858 7.7781 5.73021C7.7781 4.77462 6.98074 3.99996 5.99713 3.99996C5.01353 3.99996 4.21617 4.77462 4.21617 5.73021C4.21617 6.6858 5.01353 7.46046 5.99713 7.46046Z" fill="#0F7EE6"/>
<path d="M4.18547 11.8307C4.77173 11.9417 5.37744 11.9999 5.99713 11.9999C6.61683 11.9999 7.22254 11.9417 7.8088 11.8307C8.33655 11.7307 8.75282 11.3221 8.78662 10.8008C8.79271 10.7069 8.7958 10.6122 8.7958 10.5168C8.7958 9.42073 8.38783 8.41722 7.71137 7.64179C7.6215 7.53877 7.46279 7.53499 7.35075 7.6149C6.97158 7.88531 6.50355 8.04503 5.99713 8.04503C5.49072 8.04503 5.02269 7.88531 4.64352 7.6149C4.53148 7.53499 4.37277 7.53877 4.2829 7.64179C3.60644 8.41722 3.19847 9.42073 3.19847 10.5168C3.19847 10.6122 3.20156 10.7069 3.20765 10.8008C3.24145 11.3221 3.65772 11.7307 4.18547 11.8307Z" fill="#0F7EE6"/>
<path fill-rule="evenodd" clip-rule="evenodd" d="M15.527 9.21601C16.1554 9.83959 16.158 10.8552 15.5329 11.482L11.3963 15.6299C11.1689 15.8584 10.8531 16 10.504 16H7.99618V13.5114C7.99618 13.1412 8.15904 12.8088 8.41753 12.5809L12.5139 8.47299C13.1365 7.84871 14.1465 7.84607 14.7723 8.46708L15.527 9.21601ZM13.6402 9.10332L14.8925 10.3461L14.4002 10.8422L13.1517 9.5956L13.6402 9.10332ZM12.4283 10.3247L13.6768 11.5714L11.3705 13.8958L10.504 14.7557H9.25007V13.5114L10.1181 12.653L12.4283 10.3247Z" fill="#0F7EE6"/>
<path d="M9.19561 3.99996C8.9748 3.99996 8.7958 4.17904 8.7958 4.39996C8.7958 4.62087 8.9748 4.79995 9.19561 4.79995H12.3941C12.6149 4.79995 12.7939 4.62087 12.7939 4.39996C12.7939 4.17904 12.6149 3.99996 12.3941 3.99996H9.19561Z" fill="#0F7EE6"/>
<path d="M8.7958 5.99994C8.7958 5.77903 8.9748 5.59995 9.19561 5.59995H12.3941C12.6149 5.59995 12.7939 5.77903 12.7939 5.99994C12.7939 6.22085 12.6149 6.39994 12.3941 6.39994H9.19561C8.9748 6.39994 8.7958 6.22085 8.7958 5.99994Z" fill="#0F7EE6"/>
<path d="M9.19561 7.19993C8.9748 7.19993 8.7958 7.37901 8.7958 7.59993C8.7958 7.82084 8.9748 7.99992 9.19561 7.99992H10.7948C11.0157 7.99992 11.1947 7.82084 11.1947 7.59993C11.1947 7.37901 11.0157 7.19993 10.7948 7.19993H9.19561Z" fill="#0F7EE6"/>
</svg>
