<svg width="15" height="12" viewBox="0 0 15 12" fill="none" xmlns="http://www.w3.org/2000/svg">
<path d="M13.3929 0H1.60714C0.719541 0 0 0.805888 0 1.8V10.2C0 11.1941 0.719541 12 1.60714 12H13.3929C14.2805 12 15 11.1941 15 10.2V1.8C15 0.805888 14.2805 0 13.3929 0ZM13.9286 6.95159L10.5573 3.17581C10.3481 2.94156 10.009 2.94156 9.79983 3.17581L5.35715 8.15158L3.59303 6.17576C3.38385 5.94152 3.04472 5.94152 2.83554 6.17576L1.07142 8.15158V1.8C1.07142 1.46862 1.31126 1.19999 1.60714 1.19999H13.3929C13.6887 1.19999 13.9286 1.46862 13.9286 1.8V6.95159H13.9286Z" fill="#777777"/>
</svg>
