<svg width="8" height="12" viewBox="0 0 8 12" fill="none" xmlns="http://www.w3.org/2000/svg">
<path d="M0 0H2.02566V5.32529C2.02566 6.17036 2.05076 6.71809 2.10094 6.96848C2.18762 7.37089 2.39293 7.69506 2.71685 7.94098C3.04534 8.18243 3.49244 8.30315 4.05817 8.30315C4.63302 8.30315 5.06644 8.18914 5.35843 7.9611C5.65041 7.72859 5.82606 7.44467 5.88537 7.10932C5.94468 6.77398 5.97434 6.2173 5.97434 5.4393V0H8V5.16432C8 6.34474 7.94525 7.17863 7.83576 7.666C7.72626 8.15337 7.52324 8.56472 7.22669 8.90007C6.9347 9.23541 6.54234 9.50369 6.04961 9.7049C5.55689 9.90163 4.9136 10 4.11976 10C3.16168 10 2.43399 9.89269 1.9367 9.67807C1.44397 9.45898 1.05389 9.17729 0.766467 8.833C0.479042 8.48424 0.289706 8.11983 0.19846 7.73977C0.0661534 7.17639 0 6.34474 0 5.2448V0Z" fill="#777777"/>
<rect y="11" width="8" height="1" fill="#777777"/>
</svg>
