<svg width="21" height="20" viewBox="0 0 21 20" fill="none" xmlns="http://www.w3.org/2000/svg">
<path fill-rule="evenodd" clip-rule="evenodd" d="M4.5 4H16.5C17.1444 4 17.7176 4.30476 18.0834 4.77801C18.1847 4.90903 18.3344 5 18.5 5C19.354 5 20.2261 4.31096 19.7184 3.62429C18.9898 2.63893 17.8195 2 16.5 2H4.5C2.29086 2 0.5 3.79086 0.5 6V14C0.5 16.2091 2.29086 18 4.5 18H16.5C17.8195 18 18.9898 17.3611 19.7184 16.3757C20.2261 15.689 19.354 15 18.5 15C18.3344 15 18.1847 15.091 18.0834 15.222C17.7176 15.6952 17.1444 16 16.5 16H4.5C3.39543 16 2.5 15.1046 2.5 14V6C2.5 4.89543 3.39543 4 4.5 4ZM9.5 9C9.5 7.34315 10.8431 6 12.5 6H17.5C19.1569 6 20.5 7.34315 20.5 9V11C20.5 12.6569 19.1569 14 17.5 14H12.5C10.8431 14 9.5 12.6569 9.5 11V9ZM12.5 8C11.9477 8 11.5 8.44772 11.5 9V11C11.5 11.5523 11.9477 12 12.5 12H17.5C18.0523 12 18.5 11.5523 18.5 11V9C18.5 8.44772 18.0523 8 17.5 8H12.5ZM12.5 10C12.5 9.44772 12.9477 9 13.5 9C14.0523 9 14.5 9.44772 14.5 10C14.5 10.5523 14.0523 11 13.5 11C12.9477 11 12.5 10.5523 12.5 10Z" fill="white"/>
</svg>
